<svg xmlns="http://www.w3.org/2000/svg" xml:space="preserve" viewBox="0 0 512 512">
  <path d="M368.118 318.792h-36.723c39.321-24.151 64.68-67.408 64.68-116.531v-67.717C396.076 59.998 336.382 0 261.778 0h-9.552c-74.604 0-136.302 59.998-136.302 134.545v67.717c0 49.123 27.362 92.38 66.684 116.531h-36.726c-53.255 0-97.58 42.686-97.58 95.951v86.943c0 5.34 5.326 10.314 10.66 10.314h396.075c5.335 0 8.66-4.974 8.66-10.314v-86.943c.001-53.265-42.324-95.952-95.579-95.952zM135.245 134.545c0-63.896 53.028-115.224 116.981-115.224h9.552c63.948 0 114.976 51.328 114.976 115.224v8.087c-62.792-11.608-86.789-49.972-87.821-51.653-1.656-2.755-4.325-4.509-7.533-4.679-3.292-.132-6.672 1.283-8.601 3.859-43.84 58.45-110.988 70.37-137.554 72.795v-28.409zm0 67.717V182.42c26.566-2.035 95-12.896 144.712-70.809 13.152 15.108 43.665 41.729 96.797 50.639v40.012c0 63.896-51.028 116.531-114.976 116.531h-9.552c-63.953-.001-116.981-52.635-116.981-116.531zm106.264 290.417H67.623v-77.936c0-42.613 35.66-76.63 78.259-76.63h35.095l60.532 52.09v102.476zM210.66 338.113h83.019l-41.509 35.576-41.51-35.576zm233.717 154.566H260.83V390.203l62.532-52.09h44.756c42.599 0 76.26 34.017 76.26 76.63v77.936z"/>
  <path d="M203.868 173.234c-10.656 0-19.321 8.67-19.321 19.321 0 10.651 8.665 19.321 19.321 19.321 10.656 0 19.321-8.67 19.321-19.321 0-10.652-8.665-19.321-19.321-19.321zm106.264 0c-10.656 0-19.321 8.67-19.321 19.321 0 10.651 8.665 19.321 19.321 19.321s19.321-8.67 19.321-19.321c0-10.652-8.665-19.321-19.321-19.321zm-20.943 91.245c-2.962-4.443-8.958-5.641-13.396-2.679-3.127 2.085-13.698 8.038-20.986 8.038-6.406 0-13.212-5.047-15.307-7.01-3.849-3.651-9.948-3.509-13.632.33-3.689 3.858-3.552 9.972.302 13.66 1.321 1.264 13.344 12.34 28.637 12.34 14.363 0 29.972-10.132 31.703-11.283 4.438-2.962 5.636-8.953 2.679-13.396zm107.887 170.238h-96.604c-5.335 0-9.66 4.321-9.66 9.66s4.325 9.66 9.66 9.66h96.604c5.335 0 9.66-4.321 9.66-9.66s-4.326-9.66-9.66-9.66z"/>
</svg>