<svg xmlns="http://www.w3.org/2000/svg" fill="none" viewBox="0 0 24 24">
  <path fill="#47495F" fill-rule="evenodd" d="M7.5 11c-.5523 0-1 .4477-1 1s.4477 1 1 1 1-.4477 1-1-.4477-1-1-1Zm-2 1c0-1.1046.8954-2 2-2s2 .8954 2 2-.8954 2-2 2-2-.8954-2-2Zm11-1c-.5523 0-1 .4477-1 1s.4477 1 1 1 1-.4477 1-1-.4477-1-1-1Zm-2 1c0-1.1046.8954-2 2-2s2 .8954 2 2-.8954 2-2 2-2-.8954-2-2ZM10 15.5a.5.5 0 0 1 .5.5l.0003.0027s.0011.0046.0031.0095a.2135.2135 0 0 0 .0355.0541c.0456.0539.1312.1239.2705.1936.2789.1394.6991.2401 1.1906.2401.4915 0 .9117-.1007 1.1906-.2401.1393-.0697.2249-.1397.2705-.1936a.2135.2135 0 0 0 .0355-.0541.0737.0737 0 0 0 .0031-.0095L13.5 16a.5.5 0 0 1 1 0c0 .5676-.4471.9468-.8622 1.1543-.445.2225-1.0247.3457-1.6378.3457s-1.1928-.1232-1.6378-.3457C9.9471 16.9468 9.5 16.5676 9.5 16a.5.5 0 0 1 .5-.5Z" clip-rule="evenodd"/>
  <path fill="#47495F" fill-rule="evenodd" d="M16 5.5v2H8v-2a.5.5 0 0 0-1 0v2H6c-1.3807 0-2.5 1.1193-2.5 2.5v7c0 1.3807 1.1193 2.5 2.5 2.5h12c1.3807 0 2.5-1.1193 2.5-2.5v-7c0-1.3807-1.1193-2.5-2.5-2.5h-1v-2a.5.5 0 0 0-1 0Zm-10 3c-.8284 0-1.5.6716-1.5 1.5v7c0 .8284.6716 1.5 1.5 1.5h12c.8284 0 1.5-.6716 1.5-1.5v-7c0-.8284-.6716-1.5-1.5-1.5H6Z" clip-rule="evenodd"/>
</svg>